<?xml version="1.0" encoding="UTF-8" standalone="yes"?><svg xmlns="http://www.w3.org/2000/svg" xmlns:xlink="http://www.w3.org/1999/xlink" height="364px" style="width:71px;height:364px;" version="1.1" viewBox="0 0 71 364" width="71px"><defs><filter height="300%" id="f2gs7s9" width="300%" x="-1" y="-1"><feGaussianBlur result="blurOut" stdDeviation="2.0"/><feColorMatrix in="blurOut" result="blurOut2" type="matrix" values="0 0 0 0 0 0 0 0 0 0 0 0 0 0 0 0 0 0 .4 0"/><feOffset dx="4.0" dy="4.0" in="blurOut2" result="blurOut3"/><feBlend in="SourceGraphic" in2="blurOut3" mode="normal"/></filter></defs><g><ellipse cx="34" cy="18" fill="#000000" filter="url(#f2gs7s9)" rx="10" ry="10" style="stroke: none; stroke-width: 1.0;"/><rect fill="#FEFECE" filter="url(#f2gs7s9)" height="54.3154" rx="12.5" ry="12.5" style="stroke: #A80036; stroke-width: 1.5;" width="56" x="6" y="89"/><line style="stroke: #A80036; stroke-width: 1.5;" x1="6" x2="62" y1="117.4775" y2="117.4775"/><text fill="#000000" font-family="sans-serif" font-size="14" lengthAdjust="spacingAndGlyphs" textLength="14" x="27" y="108.8135">s1</text><text fill="#000000" font-family="sans-serif" font-size="12" lengthAdjust="spacingAndGlyphs" textLength="36" x="11" y="135.1748">已申请</text><rect fill="#FEFECE" filter="url(#f2gs7s9)" height="54.3154" rx="12.5" ry="12.5" style="stroke: #A80036; stroke-width: 1.5;" width="56" x="6" y="222"/><line style="stroke: #A80036; stroke-width: 1.5;" x1="6" x2="62" y1="250.4775" y2="250.4775"/><text fill="#000000" font-family="sans-serif" font-size="14" lengthAdjust="spacingAndGlyphs" textLength="14" x="27" y="241.8135">s2</text><text fill="#000000" font-family="sans-serif" font-size="12" lengthAdjust="spacingAndGlyphs" textLength="36" x="11" y="268.1748">已完成</text><ellipse cx="34" cy="347" fill="none" filter="url(#f2gs7s9)" rx="10" ry="10" style="stroke: #000000; stroke-width: 1.0;"/><ellipse cx="34.5" cy="347.5" fill="#000000" rx="6" ry="6" style="stroke: none; stroke-width: 1.0;"/><path d="M34,28.205 C34,40.817 34,64.1 34,83.379 " fill="none" style="stroke: #A80036; stroke-width: 1.0;"/><polygon fill="#A80036" points="34,88.698,38,79.698,34,83.698,30,79.698,34,88.698" style="stroke: #A80036; stroke-width: 1.0;"/><path d="M34,143.195 C34,164.347 34,194.177 34,216.607 " fill="none" style="stroke: #A80036; stroke-width: 1.0;"/><polygon fill="#A80036" points="34,221.85,38,212.85,34,216.85,30,212.85,34,221.85" style="stroke: #A80036; stroke-width: 1.0;"/><text fill="#000000" font-family="sans-serif" font-size="13" lengthAdjust="spacingAndGlyphs" textLength="26" x="35" y="187.7554">审核</text><path d="M34,276.2324 C34,294.0719 34,317.0007 34,331.6033 " fill="none" style="stroke: #A80036; stroke-width: 1.0;"/><polygon fill="#A80036" points="34,336.9469,38,327.9469,34,331.9469,30,327.9469,34,336.9469" style="stroke: #A80036; stroke-width: 1.0;"/></g></svg>