<?xml version="1.0" encoding="UTF-8" standalone="yes"?><svg xmlns="http://www.w3.org/2000/svg" xmlns:xlink="http://www.w3.org/1999/xlink" height="878px" style="width:237px;height:878px;" version="1.1" viewBox="0 0 237 878" width="237px"><defs><filter height="300%" id="fl73fg9" width="300%" x="-1" y="-1"><feGaussianBlur result="blurOut" stdDeviation="2.0"/><feColorMatrix in="blurOut" result="blurOut2" type="matrix" values="0 0 0 0 0 0 0 0 0 0 0 0 0 0 0 0 0 0 .4 0"/><feOffset dx="4.0" dy="4.0" in="blurOut2" result="blurOut3"/><feBlend in="SourceGraphic" in2="blurOut3" mode="normal"/></filter></defs><g><ellipse cx="145.501" cy="18" fill="#000000" filter="url(#fl73fg9)" rx="10" ry="10" style="stroke: none; stroke-width: 1.0;"/><rect fill="#FEFECE" filter="url(#fl73fg9)" height="54.3154" rx="12.5" ry="12.5" style="stroke: #A80036; stroke-width: 1.5;" width="56" x="117.501" y="89"/><line style="stroke: #A80036; stroke-width: 1.5;" x1="117.501" x2="173.501" y1="117.4775" y2="117.4775"/><text fill="#000000" font-family="sans-serif" font-size="14" lengthAdjust="spacingAndGlyphs" textLength="14" x="138.501" y="108.8135">s1</text><text fill="#000000" font-family="sans-serif" font-size="12" lengthAdjust="spacingAndGlyphs" textLength="36" x="122.501" y="135.1748">已创建</text><rect fill="#FEFECE" filter="url(#fl73fg9)" height="54.3154" rx="12.5" ry="12.5" style="stroke: #A80036; stroke-width: 1.5;" width="56" x="29.5009" y="222"/><line style="stroke: #A80036; stroke-width: 1.5;" x1="29.5009" x2="85.5009" y1="250.4775" y2="250.4775"/><text fill="#000000" font-family="sans-serif" font-size="14" lengthAdjust="spacingAndGlyphs" textLength="14" x="50.5009" y="241.8135">s2</text><text fill="#000000" font-family="sans-serif" font-size="12" lengthAdjust="spacingAndGlyphs" textLength="36" x="34.5009" y="268.1748">已支付</text><rect fill="#FEFECE" filter="url(#fl73fg9)" height="54.3154" rx="12.5" ry="12.5" style="stroke: #A80036; stroke-width: 1.5;" width="56" x="130.501" y="621"/><line style="stroke: #A80036; stroke-width: 1.5;" x1="130.501" x2="186.501" y1="649.4775" y2="649.4775"/><text fill="#000000" font-family="sans-serif" font-size="14" lengthAdjust="spacingAndGlyphs" textLength="14" x="151.501" y="640.8135">s5</text><text fill="#000000" font-family="sans-serif" font-size="12" lengthAdjust="spacingAndGlyphs" textLength="36" x="135.501" y="667.1748">已失效</text><rect fill="#FEFECE" filter="url(#fl73fg9)" height="54.3154" rx="12.5" ry="12.5" style="stroke: #A80036; stroke-width: 1.5;" width="56" x="29.5009" y="355"/><line style="stroke: #A80036; stroke-width: 1.5;" x1="29.5009" x2="85.5009" y1="383.4775" y2="383.4775"/><text fill="#000000" font-family="sans-serif" font-size="14" lengthAdjust="spacingAndGlyphs" textLength="14" x="50.5009" y="374.8135">s3</text><text fill="#000000" font-family="sans-serif" font-size="12" lengthAdjust="spacingAndGlyphs" textLength="36" x="34.5009" y="401.1748">已核保</text><rect fill="#FEFECE" filter="url(#fl73fg9)" height="54.3154" rx="12.5" ry="12.5" style="stroke: #A80036; stroke-width: 1.5;" width="56" x="21.5009" y="621"/><line style="stroke: #A80036; stroke-width: 1.5;" x1="21.5009" x2="77.5009" y1="649.4775" y2="649.4775"/><text fill="#000000" font-family="sans-serif" font-size="14" lengthAdjust="spacingAndGlyphs" textLength="14" x="42.5009" y="640.8135">s6</text><text fill="#000000" font-family="sans-serif" font-size="12" lengthAdjust="spacingAndGlyphs" textLength="36" x="26.5009" y="667.1748">待退款</text><rect fill="#FEFECE" filter="url(#fl73fg9)" height="54.3154" rx="12.5" ry="12.5" style="stroke: #A80036; stroke-width: 1.5;" width="56" x="95.5009" y="488"/><line style="stroke: #A80036; stroke-width: 1.5;" x1="95.5009" x2="151.5009" y1="516.4775" y2="516.4775"/><text fill="#000000" font-family="sans-serif" font-size="14" lengthAdjust="spacingAndGlyphs" textLength="14" x="116.5009" y="507.8135">s4</text><text fill="#000000" font-family="sans-serif" font-size="12" lengthAdjust="spacingAndGlyphs" textLength="36" x="100.5009" y="534.1748">已生效</text><ellipse cx="123.501" cy="861" fill="none" filter="url(#fl73fg9)" rx="10" ry="10" style="stroke: #000000; stroke-width: 1.0;"/><ellipse cx="124.001" cy="861.5" fill="#000000" rx="6" ry="6" style="stroke: none; stroke-width: 1.0;"/><rect fill="#FEFECE" filter="url(#fl73fg9)" height="54.3154" rx="12.5" ry="12.5" style="stroke: #A80036; stroke-width: 1.5;" width="56" x="42.5009" y="736"/><line style="stroke: #A80036; stroke-width: 1.5;" x1="42.5009" x2="98.5009" y1="764.4775" y2="764.4775"/><text fill="#000000" font-family="sans-serif" font-size="14" lengthAdjust="spacingAndGlyphs" textLength="14" x="63.5009" y="755.8135">s7</text><text fill="#000000" font-family="sans-serif" font-size="12" lengthAdjust="spacingAndGlyphs" textLength="36" x="47.5009" y="782.1748">已退款</text><path d="M145.501,28.205 C145.501,40.817 145.501,64.1 145.501,83.379 " fill="none" style="stroke: #A80036; stroke-width: 1.0;"/><polygon fill="#A80036" points="145.501,88.698,149.501,79.698,145.501,83.698,141.501,79.698,145.501,88.698" style="stroke: #A80036; stroke-width: 1.0;"/><path d="M127.904,143.195 C113.515,164.615 93.1483,194.934 78.0196,217.455 " fill="none" style="stroke: #A80036; stroke-width: 1.0;"/><polygon fill="#A80036" points="75.067,221.85,83.4063,216.6102,77.8554,217.6997,76.7659,212.1488,75.067,221.85" style="stroke: #A80036; stroke-width: 1.0;"/><text fill="#000000" font-family="sans-serif" font-size="13" lengthAdjust="spacingAndGlyphs" textLength="52" x="107.501" y="187.7554">微信支付</text><path d="M167.168,143.275 C185.735,168.506 209.501,208.513 209.501,248 C209.501,248 209.501,248 209.501,516 C209.501,552.072 192.501,590.158 178.131,615.909 " fill="none" style="stroke: #A80036; stroke-width: 1.0;"/><polygon fill="#A80036" points="175.483,620.57,183.4069,614.721,177.9531,616.2227,176.4513,610.7689,175.483,620.57" style="stroke: #A80036; stroke-width: 1.0;"/><text fill="#000000" font-family="sans-serif" font-size="13" lengthAdjust="spacingAndGlyphs" textLength="26" x="210.501" y="387.2554">取消</text><path d="M57.5009,276.195 C57.5009,297.347 57.5009,327.177 57.5009,349.607 " fill="none" style="stroke: #A80036; stroke-width: 1.0;"/><polygon fill="#A80036" points="57.5009,354.85,61.5009,345.85,57.5009,349.85,53.5009,345.85,57.5009,354.85" style="stroke: #A80036; stroke-width: 1.0;"/><text fill="#000000" font-family="sans-serif" font-size="13" lengthAdjust="spacingAndGlyphs" textLength="26" x="58.5009" y="320.7554">核保</text><path d="M42.7181,276.214 C31.9518,296.885 18.283,326.83 12.5009,355 C-6.7589,448.832 22.0253,561.812 38.8207,615.588 " fill="none" style="stroke: #A80036; stroke-width: 1.0;"/><polygon fill="#A80036" points="40.4066,620.604,41.5077,610.8169,38.8995,615.8366,33.8798,613.2283,40.4066,620.604" style="stroke: #A80036; stroke-width: 1.0;"/><text fill="#000000" font-family="sans-serif" font-size="13" lengthAdjust="spacingAndGlyphs" textLength="26" x="7.5009" y="453.7554">取消</text><path d="M70.6983,409.195 C81.445,430.526 96.638,460.681 107.97,483.173 " fill="none" style="stroke: #A80036; stroke-width: 1.0;"/><polygon fill="#A80036" points="110.326,487.85,109.8474,478.0128,108.0757,483.385,102.7034,481.6133,110.326,487.85" style="stroke: #A80036; stroke-width: 1.0;"/><text fill="#000000" font-family="sans-serif" font-size="13" lengthAdjust="spacingAndGlyphs" textLength="52" x="94.5009" y="453.7554">合约生效</text><path d="M55.3064,409.3 C53.6419,430.524 51.479,461.161 50.5009,488 C48.8899,532.202 48.9038,583.36 49.1396,615.451 " fill="none" style="stroke: #A80036; stroke-width: 1.0;"/><polygon fill="#A80036" points="49.1825,620.824,53.1104,611.7923,49.1425,615.8242,45.1106,611.8563,49.1825,620.824" style="stroke: #A80036; stroke-width: 1.0;"/><text fill="#000000" font-family="sans-serif" font-size="13" lengthAdjust="spacingAndGlyphs" textLength="26" x="51.5009" y="520.2554">取消</text><path d="M130.5,542.195 C136.175,563.436 144.188,593.429 150.189,615.89 " fill="none" style="stroke: #A80036; stroke-width: 1.0;"/><polygon fill="#A80036" points="151.514,620.85,153.0535,611.1222,150.2225,616.0197,145.325,613.1886,151.514,620.85" style="stroke: #A80036; stroke-width: 1.0;"/><text fill="#000000" font-family="sans-serif" font-size="13" lengthAdjust="spacingAndGlyphs" textLength="26" x="143.501" y="586.7554">到期</text><path d="M108.704,542.195 C96.6039,563.615 79.4771,593.934 66.7552,616.455 " fill="none" style="stroke: #A80036; stroke-width: 1.0;"/><polygon fill="#A80036" points="64.2724,620.85,72.1825,614.9823,66.7322,616.4969,65.2176,611.0466,64.2724,620.85" style="stroke: #A80036; stroke-width: 1.0;"/><text fill="#000000" font-family="sans-serif" font-size="13" lengthAdjust="spacingAndGlyphs" textLength="26" x="91.5009" y="586.7554">取消</text><path d="M154.139,675.297 C146.659,720.388 131.634,810.9688 125.847,845.8547 " fill="none" style="stroke: #A80036; stroke-width: 1.0;"/><polygon fill="#A80036" points="125,850.96,130.4189,842.7359,125.8182,846.0274,122.5268,841.4267,125,850.96" style="stroke: #A80036; stroke-width: 1.0;"/><path d="M54.3715,675.208 C57.446,691.752 61.4348,713.216 64.6765,730.659 " fill="none" style="stroke: #A80036; stroke-width: 1.0;"/><polygon fill="#A80036" points="65.6567,735.934,67.9436,726.3543,64.7424,731.0183,60.0785,727.8171,65.6567,735.934" style="stroke: #A80036; stroke-width: 1.0;"/><path d="M84.9833,790.2324 C95.2268,808.7867 108.51,832.8462 116.499,847.3175 " fill="none" style="stroke: #A80036; stroke-width: 1.0;"/><polygon fill="#A80036" points="118.994,851.8358,118.1459,842.0235,116.5774,847.4586,111.1423,845.8901,118.994,851.8358" style="stroke: #A80036; stroke-width: 1.0;"/></g></svg>